<?xml version="1.0" standalone="no"?>
<!DOCTYPE svg PUBLIC "-//W3C//DTD SVG 20010904//EN"
 "http://www.w3.org/TR/2001/REC-SVG-20010904/DTD/svg10.dtd">
<svg version="1.0" xmlns="http://www.w3.org/2000/svg"
 width="260.000000pt" height="260.000000pt" viewBox="0 0 260.000000 260.000000"
 preserveAspectRatio="xMidYMid meet">
<metadata>
Created by potrace 1.14, written by Peter Selinger 2001-2017
</metadata>
<g transform="translate(0.000000,260.000000) scale(0.100000,-0.100000)"
fill="#000000" stroke="none">
<path d="M100 2490 l0 -50 -50 0 -50 0 0 -1094 0 -1095 48 -3 47 -3 3 -47 3
-47 52 -3 c39 -2 51 -7 49 -18 -2 -8 -1 -29 3 -47 l6 -33 1139 0 1140 0 0 50
0 50 50 0 50 0 0 845 0 845 -50 0 -50 0 0 50 0 50 -50 0 -50 0 0 50 0 50 -245
0 -245 0 0 50 0 50 -50 0 -50 0 0 50 0 50 -155 0 -155 0 0 100 0 100 -45 0
-45 0 0 50 0 50 -650 0 -650 0 0 -50z m300 -200 l0 -50 50 0 50 0 0 -50 0 -50
-50 0 -50 0 0 -50 0 -50 -50 0 -50 0 0 50 0 50 -50 0 -50 0 0 50 0 50 50 0 50
0 0 50 0 50 50 0 50 0 0 -50z m500 0 l0 -51 -102 3 -103 3 -1 48 -1 47 103 0
104 0 0 -50z m200 -1000 l0 -450 -400 0 -400 0 0 50 0 50 -50 0 -50 0 0 400 0
400 450 0 450 0 0 -450z m1198 -47 l-3 -98 -397 -3 -398 -2 0 100 0 100 400 0
401 0 -3 -97z m-498 -503 l0 -100 -150 0 -150 0 0 100 0 100 150 0 150 0 0
-100z m500 50 l0 -50 -50 0 -50 0 0 50 0 50 50 0 50 0 0 -50z m-1602 -347 l-3
-98 -147 -3 -148 -3 0 101 0 100 150 0 151 0 -3 -97z"/>
<path d="M300 1390 l0 -250 348 2 347 3 3 248 2 247 -350 0 -350 0 0 -250z"/>
<path d="M400 989 l0 -50 48 3 47 3 3 48 3 47 -50 0 -51 0 0 -51z"/>
</g>
</svg>
